#!OML:ASF I:\Actors\actors\Patient Classification 1\Patient 1\Session 1\Subject1.ASF
:FULLY-SPECIFIED
:DEGREES
905
root 0.751004 17.5434 8.88331 9.48418 -10.5023 -9.55811
lowerback 0.426489 1.54099 6.5199
upperback -8.55766 2.48175 0.986558
thorax -9.08044 0.758181 -2.78909
lowerneck -15.0071 0.975238 5.18311
upperneck 28.6243 -1.28761 3.79204
head 11.918 0.46083 0.339909
rclavicle -1.05356e-014 7.15625e-015
rhumerus 63.1643 60.5608 -9.06751
rradius 125.213
rwrist -48.2702
rhand 8.89199 -25.9762
rfingers 7.12502
rthumb 34.0747 -52.7434
lclavicle -1.05356e-014 7.15625e-015
lhumerus 26.6493 -59.8019 24.4602
lradius 89.3415
lwrist 65.436
lhand 14.5387 -15.8079
lfingers 7.12502
lthumb 39.4173 9.59131
rfemur -7.24618 25.6218 24.2926
rtibia 3.25084
rfoot -8.46409 -16.652
rtoes -2.8795
lfemur 5.36809 -37.6347 -12.4657
ltibia -3.58916
lfoot -24.2516 52.5039
ltoes 16.2252
906
root 0.744994 17.5409 8.88749 9.40809 -9.71212 -9.68989
lowerback 0.324991 1.35805 6.34611
upperback -8.45515 2.22274 1.09997
thorax -8.93832 0.656779 -2.54882
lowerneck -15.0985 0.853968 4.89913
upperneck 28.5658 -1.50518 4.1835
head 11.9187 0.382383 0.502917
rclavicle 1.92821e-014 -2.38542e-015
rhumerus 61.3878 61.5989 -8.47446
rradius 126.79
rwrist -47.9809
rhand 10.0744 -25.0452
rfingers 7.12502
rthumb 35.1969 -51.555
lclavicle 1.92821e-014 -2.38542e-015
lhumerus 27.3808 -59.7402 24.1665
lradius 89.0916
lwrist 65.041
lhand 14.1467 -16.4221
lfingers 7.12502
lthumb 39.0478 9.08418
rfemur -7.00797 25.5656 24.558
rtibia 3.18411
rfoot -8.67607 -17.2799
rtoes -2.44466
lfemur 5.43018 -38.4476 -12.2922
ltibia -3.73166
lfoot -23.9071 52.7301
ltoes 15.7458
907
root 0.741325 17.5395 8.8943 9.32135 -8.86292 -9.77843
lowerback 0.34042 1.204 6.17012
upperback -8.42306 2.01444 1.18924
thorax -8.93652 0.573037 -2.34124
lowerneck -15.2913 0.681996 4.41981
upperneck 28.5914 -1.77775 4.66199
head 11.9764 0.273833 0.725463
rclavicle 2.55438e-014 5.56597e-015
rhumerus 58.355 62.6699 -8.54987
rradius 128.069
rwrist -48.4131
rhand 9.64879 -25.1799
rfingers 7.12502
rthumb 34.7931 -51.7841
lclavicle 2.55438e-014 5.56597e-015
lhumerus 27.8657 -59.7465 24.1513
lradius 88.9368
lwrist 64.7334
lhand 13.8702 -16.9346
lfingers 7.12502
lthumb 38.7871 8.64605
rfemur -6.76464 25.4663 24.7815
rtibia 3.12276
rfoot -8.94335 -17.9012
rtoes -1.95015
lfemur 5.30956 -38.775 -12.0292
ltibia -3.79517
lfoot -22.9592 52.5251
ltoes 14.62
908
root 0.73855 17.5398 8.89692 9.25112 -8.03536 -9.85053
lowerback 0.398428 1.05895 5.97188
upperback -8.39476 1.82359 1.31813
thorax -8.96254 0.500351 -2.08136
lowerneck -15.4782 0.550865 3.99599
upperneck 28.5198 -1.93786 4.9453
head 11.9921 0.194028 0.880463
rclavicle 1.69961e-014 -2.3059e-014
rhumerus 53.9799 63.2002 -9.91897
rradius 128.242
rwrist -47.8034
rhand 10.4456 -24.6115
rfingers 7.12502
rthumb 35.5489 -51.0375
lclavicle 1.69961e-014 -2.3059e-014
lhumerus 27.9369 -59.5569 24.5528
lradius 88.9075
lwrist 64.9025
lhand 14.2708 -16.5133
lfingers 7.12502
lthumb 39.1648 8.95935
rfemur -6.6261 25.3612 24.9526
rtibia 3.14157
rfoot -9.21876 -18.5166
rtoes -1.55567
lfemur 4.87398 -38.5252 -11.552
ltibia -3.67774
lfoot -21.584 51.7853
ltoes 13.2105
909
root 0.738256 17.5393 8.89083 9.07537 -7.40547 -9.69401
lowerback 0.622719 0.911308 5.57899
upperback -8.34844 1.62717 1.40604
thorax -9.06608 0.435752 -1.75904
lowerneck -15.6559 0.515518 3.7619
upperneck 28.4981 -1.95273 5.02263
head 12.021 0.174779 0.947873
rclavicle 7.15625e-015 -2.54444e-014
rhumerus 49.1485 63.0453 -12.1309
rradius 127.273
rwrist -46.6421
rhand 10.9218 -24.2104
rfingers 7.12502
rthumb 36.0001 -50.5269
lclavicle 7.15625e-015 -2.54444e-014
lhumerus 27.646 -59.339 25.1458
lradius 88.9229
lwrist 65.1487
lhand 14.7219 -16.0703
lfingers 7.12502
lthumb 39.5898 9.27821
rfemur -6.52262 25.3288 24.8406
rtibia 3.2588
rfoot -9.38864 -19.1104
rtoes -1.45431
lfemur 4.53699 -38.3591 -11.4405
ltibia -3.48527
lfoot -20.546 51.153
ltoes 12.1771
910
root 0.74081 17.5387 8.87756 8.78554 -7.08282 -9.31597
lowerback 1.05982 0.787118 5.04323
upperback -8.31185 1.46144 1.42148
thorax -9.30174 0.390576 -1.43861
lowerneck -15.7702 0.582401 3.8074
upperneck 28.5979 -1.82164 4.82778
head 12.0787 0.218334 0.888473
rclavicle 5.76476e-015 1.90833e-014
rhumerus 44.7154 62.4817 -14.4491
rradius 125.648
rwrist -46.2036
rhand 11.0556 -23.8944
rfingers 7.12502
rthumb 36.1269 -50.1797
lclavicle 5.76476e-015 1.90833e-014
lhumerus 27.0534 -59.2509 25.7748
lradius 88.9661
lwrist 65.3528
lhand 14.881 -15.9253
lfingers 7.12502
lthumb 39.7396 9.37874
rfemur -6.42532 25.3639 24.4657
rtibia 3.46657
rfoot -9.44512 -19.5395
rtoes -1.72039
lfemur 4.47462 -38.4411 -11.8301
ltibia -3.29411
lfoot -20.1335 50.8775
ltoes 11.774
911
root 0.744432 17.5407 8.87079 8.55618 -6.96243 -9.14875
lowerback 1.30619 0.684701 4.82555
upperback -8.25019 1.33049 1.49726
thorax -9.39143 0.345283 -1.2291
lowerneck -15.7267 0.747535 3.89515
upperneck 28.6371 -1.54881 4.64015
head 12.0792 0.326465 0.843867
rclavicle -8.34896e-015 2.46493e-014
rhumerus 43.1573 61.4689 -15.2113
rradius 123.193
rwrist -46.6981
rhand 9.9389 -24.3354
rfingers 7.12502
rthumb 35.0684 -50.8754
lclavicle -8.34896e-015 2.46493e-014
lhumerus 26.1161 -59.184 26.5356
lradius 89.0458
lwrist 65.6099
lhand 14.9396 -15.6836
lfingers 7.12502
lthumb 39.7948 9.60404
rfemur -6.28734 25.4187 24.3449
rtibia 3.5926
rfoot -9.47032 -19.7666
rtoes -2.01113
lfemur 4.55678 -38.4059 -12.0743
ltibia -3.20606
lfoot -20.0476 50.6701
ltoes 11.7954
